<?xml version="1.0" encoding="UTF-8" standalone="no"?>
<svg
   xmlns:osb="http://www.openswatchbook.org/uri/2009/osb"
   xmlns:dc="http://purl.org/dc/elements/1.1/"
   xmlns:cc="http://creativecommons.org/ns#"
   xmlns:rdf="http://www.w3.org/1999/02/22-rdf-syntax-ns#"
   xmlns:svg="http://www.w3.org/2000/svg"
   xmlns="http://www.w3.org/2000/svg"
   xmlns:xlink="http://www.w3.org/1999/xlink"
   xmlns:sodipodi="http://sodipodi.sourceforge.net/DTD/sodipodi-0.dtd"
   xmlns:inkscape="http://www.inkscape.org/namespaces/inkscape"
   version="1.1"
   id="svg2"
   viewBox="0 0 199.99999 199.99999"
   height="200"
   width="200"
   inkscape:version="0.91 r13725"
   sodipodi:docname="Logo.svg">
  <sodipodi:namedview
     pagecolor="#ffffff"
     bordercolor="#666666"
     borderopacity="1"
     objecttolerance="10"
     gridtolerance="10"
     guidetolerance="10"
     inkscape:pageopacity="0"
     inkscape:pageshadow="2"
     inkscape:window-width="1920"
     inkscape:window-height="1017"
     id="namedview26"
     showgrid="false"
     inkscape:zoom="2.36"
     inkscape:cx="76.308775"
     inkscape:cy="111.37895"
     inkscape:window-x="1600"
     inkscape:window-y="0"
     inkscape:window-maximized="1"
     inkscape:current-layer="g4496" />
  <title
     id="title4136">Geant4 Logo</title>
  <defs
     id="defs4">
    <linearGradient
       osb:paint="solid"
       id="linearGradient6614">
      <stop
         id="stop6616"
         offset="0"
         style="stop-color:#000000;stop-opacity:1;" />
    </linearGradient>
    <linearGradient
       osb:paint="gradient"
       id="linearGradient6383">
      <stop
         id="stop6385"
         offset="0"
         style="stop-color:#efefef;stop-opacity:1;" />
      <stop
         id="stop6387"
         offset="1"
         style="stop-color:#efefef;stop-opacity:0;" />
    </linearGradient>
    <linearGradient
       gradientTransform="matrix(0.90495064,0,0,0.90495062,9.9567477,91.340797)"
       gradientUnits="userSpaceOnUse"
       y2="952.36224"
       x2="201.50249"
       y1="952.36224"
       x1="-1.5025111"
       id="linearGradient6618"
       xlink:href="#linearGradient6614" />
  </defs>
  <metadata
     id="metadata7">
    <rdf:RDF>
      <cc:Work
         rdf:about="">
        <dc:format>image/svg+xml</dc:format>
        <dc:type
           rdf:resource="http://purl.org/dc/dcmitype/StillImage" />
        <dc:title>Geant4 Logo</dc:title>
        <dc:date>09.11.2016</dc:date>
        <dc:creator>
          <cc:Agent>
            <dc:title>Recep Kandemir</dc:title>
          </cc:Agent>
        </dc:creator>
      </cc:Work>
    </rdf:RDF>
  </metadata>
  <g
     transform="translate(0,-852.36225)"
     id="layer1">
    <g
       id="g4188">
      <g
         id="g4413"
         transform="translate(0,-0.58660814)">
        <g
           id="g4506">
          <rect
             style="opacity:1;fill:none;fill-opacity:0;fill-rule:nonzero;stroke:#000000;stroke-width:9.99999881;stroke-linecap:butt;stroke-linejoin:round;stroke-miterlimit:76.59999847;stroke-dasharray:none;stroke-dashoffset:0;stroke-opacity:1"
             id="rect4937"
             width="187.58385"
             height="187.58385"
             x="6.208066"
             y="859.15692" />
          <rect
             style="opacity:1;fill:none;fill-opacity:0;fill-rule:nonzero;stroke:#00ff00;stroke-width:1.00750923;stroke-linecap:butt;stroke-linejoin:round;stroke-miterlimit:76.59999847;stroke-dasharray:none;stroke-dashoffset:0;stroke-opacity:1"
             id="rect4937-8"
             width="188.99246"
             height="188.99246"
             x="5.5037584"
             y="858.45264" />
          <g
             transform="translate(-0.31490964,-8.1628137)"
             id="g4496">
            <g
               id="g4315"
               transform="matrix(0.90871446,0,0,0.90871446,9.3884413,111.27791)">
              <path
                 sodipodi:nodetypes="ccscsccccccccscssssc"
                 inkscape:connector-curvature="0"
                 id="path4207"
                 d="m 132.18005,904.89685 -25.05024,8.98303 c 0,0 -5.25835,-20.66827 -29.870385,-23.51654 -24.612028,-2.84828 -35.639978,19.13457 -35.639978,19.13457 0,0 -10.07852,14.82565 1.24156,34.90966 11.32007,20.084 34.544488,17.08966 34.544488,17.08966 0,0 14.898678,-0.73033 25.050225,-14.75262 l -23.078346,0 0,-21.03343 56.673396,0 0,63.02725 -21.39858,0 0,-16.35932 c 0,0 -11.46614,11.46614 -30.089486,14.7526 -18.623348,3.28648 -34.617527,-3.43253 -34.617527,-3.43253 0,0 -16.2863,-5.69655 -28.04457,-23.07834 -11.75826,-17.3818 -10.80884,-31.55015 -10.29761,-39.51072 0.51123,-7.96057 4.0168,-24.39294 14.31441,-35.42088 10.29762,-11.02794 23.44351,-19.93793 38.999489,-21.47162 15.555968,-1.53369 23.224407,0 38.269154,6.79205 0,0 19.57278,9.20211 28.994,33.88718 z"
                 style="fill:none;fill-rule:evenodd;stroke:#000000;stroke-width:7.5999999;stroke-linecap:butt;stroke-linejoin:round;stroke-miterlimit:4;stroke-dasharray:none;stroke-opacity:1" />
              <path
                 sodipodi:nodetypes="ccscsccccccccscssssc"
                 inkscape:connector-curvature="0"
                 id="path4207-1"
                 d="m 132.18975,904.91065 -25.05024,8.98303 c 0,0 -5.25835,-20.66827 -29.870382,-23.51654 -24.612026,-2.84828 -35.639974,19.13457 -35.639974,19.13457 0,0 -10.078519,14.82565 1.24156,34.90966 11.320067,20.084 34.544484,17.08966 34.544484,17.08966 0,0 14.898676,-0.73033 25.050222,-14.75262 l -23.078344,0 0,-21.03343 56.673384,0 0,63.02724 -21.39857,0 0,-16.35931 c 0,0 -11.46614,11.46614 -30.089484,14.75259 -18.623347,3.28648 -34.617524,-3.43252 -34.617524,-3.43252 0,0 -16.286297,-5.69655 -28.044566,-23.07834 -11.758258,-17.3818 -10.808838,-31.55015 -10.297608,-39.51072 0.51123,-7.96057 4.016799,-24.39294 14.314408,-35.42088 10.297619,-11.02793 23.443506,-19.93792 38.999483,-21.47161 15.555967,-1.53369 23.224405,0 38.269151,6.79205 0,0 19.57278,9.2021 28.994,33.88717 z"
                 style="fill:none;fill-rule:evenodd;stroke:#ff0000;stroke-width:0.99999988;stroke-linecap:butt;stroke-linejoin:round;stroke-miterlimit:4;stroke-dasharray:none;stroke-opacity:1" />
            </g>
            <g
               id="g4319"
               transform="matrix(0.90871446,0,0,0.90871446,-51.317786,142.66571)">
              <path
                 style="font-style:normal;font-variant:normal;font-weight:normal;font-stretch:normal;font-size:medium;line-height:125%;font-family:Sawasdee;-inkscape-font-specification:Sawasdee;letter-spacing:0px;word-spacing:0px;fill:none;fill-opacity:1;fill-rule:evenodd;stroke:#000000;stroke-width:7.59999895;stroke-linecap:round;stroke-linejoin:round;stroke-miterlimit:4;stroke-dasharray:none;stroke-opacity:1"
                 d="m 247.62745,888.98045 0,-59.81735 -35.12745,45.76271 43.00847,0"
                 id="path4296"
                 inkscape:connector-curvature="0" />
              <path
                 style="font-style:normal;font-variant:normal;font-weight:normal;font-stretch:normal;font-size:40px;line-height:125%;font-family:Sawasdee;-inkscape-font-specification:Sawasdee;letter-spacing:0px;word-spacing:0px;fill:none;fill-opacity:1;fill-rule:evenodd;stroke:#ff0000;stroke-width:0.99999988;stroke-linecap:round;stroke-linejoin:round;stroke-miterlimit:4;stroke-dasharray:none;stroke-opacity:1"
                 d="m 247.65112,889.00427 0,-59.81734 -35.12745,45.76271 43.00847,0"
                 id="path4296-1"
                 inkscape:connector-curvature="0" />
            </g>
            <text
               xml:space="preserve"
               style="font-style:normal;font-weight:normal;font-size:40px;line-height:125%;font-family:sans-serif;letter-spacing:0px;word-spacing:0px;fill:#000000;fill-opacity:1;stroke:none;stroke-width:1px;stroke-linecap:butt;stroke-linejoin:miter;stroke-opacity:1"
               x="47.727016"
               y="1037.616"
               id="text4856"
               sodipodi:linespacing="125%"><tspan
                 sodipodi:role="line"
                 id="tspan4858"
                 x="47.727016"
                 y="1037.616"
                 style="font-style:normal;font-variant:normal;font-weight:bold;font-stretch:normal;font-size:12.49999809px;font-family:Sawasdee;-inkscape-font-specification:'Sawasdee Bold'">a simulation toolkit</tspan></text>
          </g>
        </g>
      </g>
    </g>
  </g>
</svg>
